<svg id="apple_light" xmlns="http://www.w3.org/2000/svg" width="38.092" height="38.092" viewBox="0 0 38.092 38.092">
  <path id="Tracé_18" data-name="Tracé 18" d="M19.046,0A19.046,19.046,0,1,1,0,19.046,19.046,19.046,0,0,1,19.046,0Z" fill="#262121"/>
  <path id="Tracé_13" data-name="Tracé 13" d="M28.553.105a.49.49,0,0,0-.42-.09L14.7,3.35a.489.489,0,0,0-.372.475v11.3a3.385,3.385,0,1,0,.979,2.38V8.892L27.762,5.8V15.13a3.385,3.385,0,1,0,.979,2.38V.491a.49.49,0,0,0-.188-.386Z" transform="translate(-1.707 8.128)" fill="#fff" fill-rule="evenodd"/>
</svg>
