<svg xmlns="http://www.w3.org/2000/svg" width="27.503" height="28.884" viewBox="0 0 27.503 28.884">
  <g transform="translate(-60.249 -3262.698)">
    <path id="file-text-edit" d="M28.564,18.505l-1.371-1.369a2.261,2.261,0,0,0-3.2,0l-7.594,7.629a1.03,1.03,0,0,0-.3.732v3.073a1.037,1.037,0,0,0,1.037,1.037H20.2a1.039,1.039,0,0,0,.732-.3l7.629-7.593a2.268,2.268,0,0,0,0-3.21Zm-2.972.041a.185.185,0,0,1,.138.057L27.1,19.973a.191.191,0,0,1,.057.138.188.188,0,0,1-.057.138l-.88.875-1.638-1.638.875-.88a.192.192,0,0,1,.134-.061Zm-5.82,8.99H18.164V25.928l4.953-4.979,1.631,1.631Zm-6.795-1.383H7.445c-2.181,0-3.112-.931-3.112-3.112V6.445c0-2.181.931-3.112,3.112-3.112h7.261V6.445a4.679,4.679,0,0,0,5.186,5.186H23V13.36a1.037,1.037,0,1,0,2.075,0V10.594a1.033,1.033,0,0,0-.3-.733l-8.3-8.3a1.033,1.033,0,0,0-.733-.3h-8.3A4.679,4.679,0,0,0,2.259,6.445v16.6a4.679,4.679,0,0,0,5.186,5.186h5.532a1.037,1.037,0,0,0,0-2.075Zm3.8-19.709V4.8l4.756,4.756H19.893c-2.181,0-3.112-.931-3.112-3.112ZM8.828,13.706a1.037,1.037,0,1,0,0,2.075H18.51a1.037,1.037,0,1,0,0-2.075Zm5.532,5.532H8.828a1.037,1.037,0,0,0,0,2.075H14.36a1.037,1.037,0,1,0,0-2.075Z" transform="translate(58.272 3261.721)" fill="#262121"/>
    <path id="file-text-edit_-_Contour" data-name="file-text-edit - Contour" d="M20.2,29.861H17.129a1.289,1.289,0,0,1-1.287-1.287V25.5a1.289,1.289,0,0,1,.376-.909l7.594-7.628a2.511,2.511,0,0,1,1.775-.742H25.6a2.511,2.511,0,0,1,1.771.738l1.37,1.368a2.518,2.518,0,0,1,0,3.564l-7.629,7.593A1.281,1.281,0,0,1,20.2,29.861Zm5.383-13.139a2.009,2.009,0,0,0-1.42.594l-7.6,7.63a.786.786,0,0,0-.23.555v3.074a.788.788,0,0,0,.787.787H20.2a.784.784,0,0,0,.556-.23l7.629-7.593a2.018,2.018,0,0,0,0-2.856l-1.371-1.369a2.008,2.008,0,0,0-1.417-.591ZM6.906,28.509a4.963,4.963,0,0,1-3.485-1.444,4.9,4.9,0,0,1-1.413-4.038V6.459A4.929,4.929,0,0,1,7.459,1.009h8.284a1.292,1.292,0,0,1,.91.378l8.3,8.3a1.291,1.291,0,0,1,.377.91V13.36a1.287,1.287,0,0,1-2.575,0V11.882H19.907a4.929,4.929,0,0,1-5.451-5.451V3.583H7.445a3,3,0,0,0-2.2.665,3,3,0,0,0-.665,2.2v16.6a3,3,0,0,0,.665,2.2,3,3,0,0,0,2.2.665h5.532a1.287,1.287,0,1,1,0,2.575H7.459A4.952,4.952,0,0,1,6.906,28.509Zm0-27.032a4.429,4.429,0,0,0-4.4,4.939l0,.029,0,16.625a4.4,4.4,0,0,0,1.268,3.642A4.428,4.428,0,0,0,7.416,27.98l.029,0h5.532a.787.787,0,0,0,0-1.575H7.445c-2.325,0-3.362-1.037-3.362-3.362V6.445c0-2.325,1.037-3.362,3.362-3.362h7.511l0,3.391a4.4,4.4,0,0,0,1.268,3.642,4.428,4.428,0,0,0,3.642,1.268l.029,0h3.362V13.36a.787.787,0,0,0,1.575,0V10.594a.788.788,0,0,0-.231-.556l-8.3-8.3a.789.789,0,0,0-.555-.231l-8.328,0A4.447,4.447,0,0,0,6.906,1.477ZM19.876,27.787H17.914V25.825l5.2-5.23L25.1,22.58Zm-1.462-.5h1.255l4.724-4.707L23.117,21.3l-4.7,4.728ZM14.36,21.563H8.828a1.287,1.287,0,0,1,0-2.575H14.36a1.287,1.287,0,0,1,0,2.575ZM8.828,19.488a.787.787,0,0,0,0,1.575H14.36a.787.787,0,0,0,0-1.575Zm17.392,1.99-1.99-1.99,1.049-1.054a.439.439,0,0,1,.306-.137H25.6a.437.437,0,0,1,.314.133L27.276,19.8a.447.447,0,0,1,0,.632Zm-1.284-1.991,1.285,1.285.664-.661L25.6,18.823ZM18.51,16.031H8.828a1.287,1.287,0,1,1,0-2.575H18.51a1.287,1.287,0,0,1,0,2.575ZM8.828,13.956a.787.787,0,1,0,0,1.575H18.51a.787.787,0,0,0,0-1.575ZM22.141,9.807H19.893c-2.325,0-3.362-1.037-3.362-3.362V4.2Zm-5.11-4.4V6.445a3,3,0,0,0,.665,2.2,3,3,0,0,0,2.2.665h1.041Z" transform="translate(58.272 3261.721)" fill="#fff"/>
  </g>
</svg>
