<svg id="ig_dark" xmlns="http://www.w3.org/2000/svg" width="38" height="38" viewBox="0 0 38 38">
  <circle id="Ellipse_2" data-name="Ellipse 2" cx="19" cy="19" r="19"/>
  <g id="Groupe_14" data-name="Groupe 14" transform="translate(7.533 8.344)">
    <path id="Tracé_2" data-name="Tracé 2" d="M16.011,0H6.1A6.11,6.11,0,0,0,0,6.1v9.909a6.109,6.109,0,0,0,6.1,6.1h9.909a6.11,6.11,0,0,0,6.1-6.1V6.1A6.11,6.11,0,0,0,16.011,0Zm4.141,16.011a4.145,4.145,0,0,1-4.141,4.141H6.1a4.145,4.145,0,0,1-4.14-4.141V6.1A4.145,4.145,0,0,1,6.1,1.962h9.909A4.145,4.145,0,0,1,20.152,6.1v9.909Z" transform="translate(0)" fill="#fff"/>
    <path id="Tracé_3" data-name="Tracé 3" d="M46.666,40.97a5.7,5.7,0,1,0,5.7,5.7A5.7,5.7,0,0,0,46.666,40.97Zm0,9.434A3.736,3.736,0,1,1,50.4,46.668,3.74,3.74,0,0,1,46.666,50.4Z" transform="translate(-35.609 -35.611)" fill="#fff"/>
    <path id="Tracé_4" data-name="Tracé 4" d="M120.36,28.251a1.438,1.438,0,1,0,1.018.421A1.445,1.445,0,0,0,120.36,28.251Z" transform="translate(-103.366 -24.556)" fill="#fff"/>
  </g>
</svg>
