<svg id="mail_light" xmlns="http://www.w3.org/2000/svg" width="38.092" height="38.092" viewBox="0 0 38.092 38.092">
  <path id="Tracé_17" data-name="Tracé 17" d="M19.046,0A19.046,19.046,0,1,1,0,19.046,19.046,19.046,0,0,1,19.046,0Z" fill="#262121"/>
  <g id="Groupe_16" data-name="Groupe 16" transform="translate(7.771 7.13)">
    <path id="Tracé_6" data-name="Tracé 6" d="M47.757.426a2.442,2.442,0,0,0-1.022.614L36.359,11.415a2.447,2.447,0,0,0-.613,1.022l10.009-2Zm0,0" transform="translate(-34.15 -0.407)" fill="#fff"/>
    <path id="Tracé_7" data-name="Tracé 7" d="M22.139,6.7,16.068.633A2.441,2.441,0,0,0,14.977,0L12.831,10.729a.67.67,0,0,1-.525.525L1.576,13.4a2.447,2.447,0,0,0,.633,1.091l.533.533L.2,17.572a.67.67,0,0,0,.947.947l2.547-2.547,1.082,1.082L.2,21.629a.67.67,0,1,0,.947.947L5.718,18,6.8,19.083,4.254,21.629a.67.67,0,1,0,.947.947L7.747,20.03l.533.533a2.468,2.468,0,0,0,3.483,0L22.139,10.188A2.466,2.466,0,0,0,22.139,6.7Zm0,0" transform="translate(0)" fill="#fff"/>
  </g>
</svg>
