<svg xmlns="http://www.w3.org/2000/svg" width="27.093" height="22.312" viewBox="0 0 27.093 22.312">
  <path id="montage-icon" d="M27.108,4H7.984A3.984,3.984,0,0,0,4,7.984V22.327a3.984,3.984,0,0,0,3.984,3.984H27.108a3.984,3.984,0,0,0,3.984-3.984V7.984A3.984,3.984,0,0,0,27.108,4ZM5.594,11.968H8.781v6.375H5.594Zm4.781-6.375H24.718V24.718H10.375Zm15.937,6.375H29.5v6.375H26.312ZM29.5,7.984v2.391H26.312V5.594h.8A2.391,2.391,0,0,1,29.5,7.984ZM7.984,5.594h.8v4.781H5.594V7.984A2.391,2.391,0,0,1,7.984,5.594ZM5.594,22.327V19.937H8.781v4.781h-.8a2.391,2.391,0,0,1-2.391-2.391Zm21.515,2.391h-.8V19.937H29.5v2.391A2.391,2.391,0,0,1,27.108,24.718ZM21.156,14.48,14.781,10.5a.8.8,0,0,0-1.219.676V19.14a.8.8,0,0,0,1.219.676l6.375-3.984a.8.8,0,0,0,0-1.351Zm-6,3.226v-5.1l4.075,2.55Z" transform="translate(-4 -4)"/>
</svg>
