<svg id="sound-icon" xmlns="http://www.w3.org/2000/svg" width="27.002" height="25.203" viewBox="0 0 27.002 25.203">
  <g id="Groupe_16" data-name="Groupe 16">
    <g id="Groupe_15" data-name="Groupe 15">
      <path id="Tracé_27" data-name="Tracé 27" d="M15.692,16.08a.9.9,0,0,0-.952.108l-8.756,7H1.8a1.8,1.8,0,0,0-1.8,1.8v7.2a1.8,1.8,0,0,0,1.8,1.8H5.984l8.754,7a.9.9,0,0,0,1.464-.7v-23.4A.9.9,0,0,0,15.692,16.08ZM5.4,32.193H1.8v-7.2H5.4Zm9,6.227-7.2-5.76V24.526l7.2-5.76Z" transform="translate(0 -15.99)" fill="#262121"/>
    </g>
  </g>
  <g id="Groupe_18" data-name="Groupe 18" transform="translate(19.226 5.976)">
    <g id="Groupe_17" data-name="Groupe 17">
      <path id="Tracé_28" data-name="Tracé 28" d="M343.293,122.489a.9.9,0,1,0-1.266,1.28,7.188,7.188,0,0,1,0,10.171.9.9,0,1,0,1.266,1.278,8.985,8.985,0,0,0,0-12.729Z" transform="translate(-341.76 -122.229)" fill="#262121"/>
    </g>
  </g>
  <g id="Groupe_20" data-name="Groupe 20" transform="translate(21.764 3.44)">
    <g id="Groupe_19" data-name="Groupe 19">
      <path id="Tracé_29" data-name="Tracé 29" d="M388.421,77.4a.9.9,0,1,0-1.267,1.278,10.748,10.748,0,0,1,0,15.247.9.9,0,1,0,1.267,1.278,12.547,12.547,0,0,0,0-17.8Z" transform="translate(-386.888 -77.137)" fill="#262121"/>
    </g>
  </g>
</svg>
