<svg id="spotify_light" xmlns="http://www.w3.org/2000/svg" width="39" height="38" viewBox="0 0 39 38">
  <ellipse id="Ellipse_6" data-name="Ellipse 6" cx="19.5" cy="19" rx="19.5" ry="19" fill="#262121"/>
  <g id="XMLID_85_" transform="translate(9.137 8.136)">
    <path id="XMLID_86_" d="M10.653,0A10.657,10.657,0,1,0,21.314,10.654,10.665,10.665,0,0,0,10.653,0ZM5.247,14.568A12.918,12.918,0,0,1,9.01,14a12.684,12.684,0,0,1,6.121,1.572.757.757,0,0,1,.256.508,1.088,1.088,0,0,1-.045.636.546.546,0,0,1-.741.213,11.627,11.627,0,0,0-9.027-.918.565.565,0,0,1-.164.025.541.541,0,0,1-.521-.382C4.795,15.344,4.991,14.652,5.247,14.568Zm-.465-3.925A16.071,16.071,0,0,1,16.39,11.878a.651.651,0,0,1,.329.384.664.664,0,0,1-.047.513c-.2.395-.437.66-.587.66a.683.683,0,0,1-.31-.076A14.726,14.726,0,0,0,5.133,12.232a.674.674,0,0,1-.176.024.665.665,0,0,1-.64-.49C4.216,11.39,4.445,10.735,4.782,10.643ZM4.663,8.079a.8.8,0,0,1-.192.023.782.782,0,0,1-.761-.593.9.9,0,0,1,.568-1.056A19.861,19.861,0,0,1,9.01,5.877a19.372,19.372,0,0,1,8.725,2.048.787.787,0,0,1,.356,1.058.9.9,0,0,1-.707.53.82.82,0,0,1-.344-.077A17.785,17.785,0,0,0,9.01,7.548,18.247,18.247,0,0,0,4.663,8.079Z" fill="#fff"/>
  </g>
</svg>
