<svg id="tik_pink" xmlns="http://www.w3.org/2000/svg" width="38" height="38" viewBox="0 0 38 38">
  <circle id="Ellipse_3" data-name="Ellipse 3" cx="19" cy="19" r="19" fill="#f2c3e4"/>
  <g id="Groupe_15" data-name="Groupe 15" transform="translate(8.073 8.051)">
    <path id="Tracé_5" data-name="Tracé 5" d="M52.088,6.283a5.93,5.93,0,0,1-3.583-1.2A5.931,5.931,0,0,1,46.137.39H42.294v10.5l0,5.751a3.484,3.484,0,1,1-2.389-3.3v-3.9a7.562,7.562,0,0,0-1.108-.082,7.368,7.368,0,0,0-5.537,2.476,7.221,7.221,0,0,0,.326,9.957,7.5,7.5,0,0,0,.694.606,7.369,7.369,0,0,0,4.517,1.527,7.562,7.562,0,0,0,1.108-.081A7.344,7.344,0,0,0,44,21.791a7.194,7.194,0,0,0,2.158-5.12l-.02-8.589A9.737,9.737,0,0,0,52.1,10.107V6.282h-.011Z" transform="translate(-31.423 -0.39)"/>
  </g>
</svg>
