<svg id="time-icon" xmlns="http://www.w3.org/2000/svg" width="25.502" height="25.502" viewBox="0 0 25.502 25.502">
  <path id="Tracé_16" data-name="Tracé 16" d="M12.751,0A12.751,12.751,0,1,0,25.5,12.751,12.779,12.779,0,0,0,12.751,0Zm0,24.008A11.257,11.257,0,1,1,24.008,12.751,11.27,11.27,0,0,1,12.751,24.008Z" fill="#262121"/>
  <circle id="Ellipse_4" data-name="Ellipse 4" cx="0.747" cy="0.747" r="0.747" transform="translate(5.664 18.344)" fill="#262121"/>
  <circle id="Ellipse_5" data-name="Ellipse 5" cx="0.747" cy="0.747" r="0.747" transform="translate(18.344 5.664)" fill="#262121"/>
  <path id="Tracé_17" data-name="Tracé 17" d="M113.939,113.939a.747.747,0,1,0,1.057,0A.747.747,0,0,0,113.939,113.939Z" transform="translate(-108.056 -108.056)" fill="#262121"/>
  <path id="Tracé_18" data-name="Tracé 18" d="M368.5,368.5a.747.747,0,1,0,1.057,0A.747.747,0,0,0,368.5,368.5Z" transform="translate(-349.936 -349.936)" fill="#262121"/>
  <path id="Tracé_19" data-name="Tracé 19" d="M241.747,63.989a.747.747,0,0,0,.747-.747V61.747a.747.747,0,1,0-1.494,0v1.494A.747.747,0,0,0,241.747,63.989Z" transform="translate(-228.996 -57.962)" fill="#262121"/>
  <path id="Tracé_20" data-name="Tracé 20" d="M241.747,391a.747.747,0,0,0-.747.747v1.494a.747.747,0,0,0,1.494,0v-1.494A.747.747,0,0,0,241.747,391Z" transform="translate(-228.996 -371.525)" fill="#262121"/>
  <path id="Tracé_21" data-name="Tracé 21" d="M63.989,241.747a.747.747,0,0,0-.747-.747H61.747a.747.747,0,1,0,0,1.494h1.494A.747.747,0,0,0,63.989,241.747Z" transform="translate(-57.962 -228.996)" fill="#262121"/>
  <path id="Tracé_22" data-name="Tracé 22" d="M391,241.747a.747.747,0,0,0,.747.747h1.494a.747.747,0,0,0,0-1.494h-1.494A.747.747,0,0,0,391,241.747Z" transform="translate(-371.525 -228.996)" fill="#262121"/>
  <path id="Tracé_23" data-name="Tracé 23" d="M242.494,155.921v-4.173a.747.747,0,1,0-1.494,0v4.483a.747.747,0,0,0,.219.528l4.483,4.483a.747.747,0,1,0,1.057-1.057Z" transform="translate(-228.996 -143.479)" fill="#262121"/>
</svg>
