<svg id="yt_pink" xmlns="http://www.w3.org/2000/svg" width="38" height="37.944" viewBox="0 0 38 37.944">
  <path id="Tracé_125" data-name="Tracé 125" d="M16.472,0A16.472,16.472,0,1,1,0,16.472,16.472,16.472,0,0,1,16.472,0Z" transform="translate(3 3.65)"/>
  <path id="Tracé_121" data-name="Tracé 121" d="M224.113,216.694l7.513-4.327-7.513-4.327Zm0,0" transform="translate(-208.12 -193.394)" fill="#f2c3e4"/>
  <path id="Tracé_122" data-name="Tracé 122" d="M19,0A18.972,18.972,0,1,0,38,18.972,18.988,18.988,0,0,0,19,0ZM30.872,18.992a31.268,31.268,0,0,1-.489,5.7,2.973,2.973,0,0,1-2.093,2.09c-1.858.488-9.29.488-9.29.488s-7.413,0-9.29-.508a2.973,2.973,0,0,1-2.093-2.09,31.131,31.131,0,0,1-.489-5.7,31.248,31.248,0,0,1,.489-5.7A3.033,3.033,0,0,1,9.71,11.16c1.858-.488,9.29-.488,9.29-.488s7.432,0,9.29.508a2.973,2.973,0,0,1,2.093,2.09A29.673,29.673,0,0,1,30.872,18.992Zm0,0" fill="#f2c3e4"/>
</svg>
